<?xml version="1.0" encoding="utf-8"?>
<!-- Generator: Adobe Illustrator 18.0.0, SVG Export Plug-In . SVG Version: 6.00 Build 0)  -->
<!DOCTYPE svg PUBLIC "-//W3C//DTD SVG 1.1//EN" "http://www.w3.org/Graphics/SVG/1.1/DTD/svg11.dtd">
<svg version="1.1" id="Layer_1" xmlns="http://www.w3.org/2000/svg" xmlns:xlink="http://www.w3.org/1999/xlink" x="0px" y="0px"
	 viewBox="0 0 1700 1400" enable-background="new 0 0 1700 1400" xml:space="preserve">
<g>
	<rect fill="#1F2D30" width="1700" height="1400"/>
	<g>
		<g>
			<g>
				<polygon fill="#B54F41" points="853.5,1191.8 547.9,1400 547.9,1400 681,1400 853.5,1273.2 				"/>
				<polygon fill="#CE6557" points="853.5,1273.2 681,1400 853.5,1400 				"/>
				<path fill="#CE6557" d="M853.5,1191.8v-417l-367.9-10.3v0c-61,30.2-96.7,95.1-89.6,162.7l6.5,62l-6.4,24.2
					c-34.5,129.5-19.8,267.3,41.4,386.6v0h110.5v0L853.5,1191.8z"/>
			</g>
			<path fill="#B54F41" d="M574.2,1226.5c6.4-54.2,0.7-109.9-16.7-161.6L505.1,997l158.9,99l-68.2-13.7v144.2H574.2z"/>
		</g>
		<g>
			<g>
				<polygon fill="#B54F41" points="853.5,1191.8 1159.1,1400 1159.1,1400 1026,1400 853.5,1273.2 				"/>
				<polygon fill="#CE6557" points="853.5,1273.2 1026,1400 853.5,1400 				"/>
				<path fill="#CE6557" d="M853.5,1191.8v-417l367.9-10.3v0c61,30.2,96.7,95.1,89.6,162.7l-6.5,62l6.4,24.2
					c34.5,129.5,19.8,267.3-41.4,386.6v0h-110.5v0L853.5,1191.8z"/>
			</g>
			<path fill="#B54F41" d="M1132.8,1226.5c-6.4-54.2-0.7-109.9,16.7-161.6l52.3-67.8l-158.9,99l68.2-13.7v144.2H1132.8z"/>
		</g>
		<path fill="#EB902C" d="M877.1,1119.6h-47.3c-213.3,0-386.1-172.9-386.1-386.1v0h819.6v0C1263.3,946.7,1090.4,1119.6,877.1,1119.6
			z"/>
		<g>
			<path fill="#FBCB2F" d="M877.1,1132.1h-47.3c-53.8,0-106-10.5-155.2-31.3c-47.5-20.1-90.1-48.8-126.7-85.4s-65.3-79.2-85.4-126.7
				c-20.8-49.2-31.3-101.4-31.3-155.2v-26.3h25v26.3c0,50.4,9.9,99.4,29.4,145.4c18.8,44.5,45.8,84.5,80.1,118.8
				c34.3,34.3,74.3,61.3,118.8,80.1c46.1,19.5,95,29.4,145.4,29.4h47.3c50.4,0,99.4-9.9,145.4-29.4c44.5-18.8,84.5-45.8,118.8-80.1
				c34.3-34.3,61.3-74.3,80.1-118.8c19.5-46.1,29.4-95,29.4-145.4v-26.3h25v26.3c0,53.8-10.5,106-31.3,155.2
				c-20.1,47.5-48.8,90.1-85.4,126.7s-79.2,65.3-126.7,85.4C983.2,1121.5,930.9,1132.1,877.1,1132.1z"/>
		</g>
		<g>
			<path fill="#FBCB2F" d="M872.6,1038.4h-38.2c-86.6,0-168.1-33.7-229.3-95c-61.3-61.3-95-142.7-95-229.3v-21.3h25v21.3
				c0,80,31.1,155.1,87.7,211.7c56.5,56.5,131.7,87.7,211.7,87.7h38.2c80,0,155.1-31.1,211.7-87.7c56.5-56.5,87.7-131.7,87.7-211.7
				v-21.3h25v21.3c0,86.6-33.7,168.1-95,229.3C1040.7,1004.7,959.2,1038.4,872.6,1038.4z"/>
		</g>
		<g>
			<g>
				<path fill="#BC3726" d="M483.9,740.1c-3.3,0-6.5-1.3-8.8-3.7c-2.3-2.3-3.7-5.5-3.7-8.8c0-3.3,1.3-6.5,3.7-8.8
					c2.3-2.3,5.6-3.7,8.8-3.7c3.3,0,6.5,1.3,8.8,3.7c2.3,2.3,3.7,5.5,3.7,8.8c0,3.3-1.3,6.5-3.7,8.8
					C490.4,738.8,487.2,740.1,483.9,740.1z"/>
			</g>
			<g>
				<path fill="#BC3726" d="M865.6,1076c-0.1-6.9,5.5-12.5,12.4-12.6l0,0c6.9-0.1,12.6,5.5,12.6,12.4l0,0
					c0.1,6.9-5.5,12.5-12.4,12.6l0,0c0,0-0.1,0-0.1,0l0,0C871.2,1088.4,865.6,1082.9,865.6,1076z M828.5,1088.4L828.5,1088.4
					c-6.9-0.1-12.4-5.7-12.4-12.6l0,0c0.1-6.9,5.7-12.4,12.6-12.4l0,0c6.9,0.1,12.4,5.7,12.4,12.6l0,0c-0.1,6.9-5.7,12.4-12.5,12.4
					l0,0C828.6,1088.4,828.6,1088.4,828.5,1088.4z M914.9,1073.8c-1-6.8,3.7-13.2,10.5-14.2l0,0c6.8-1,13.2,3.7,14.2,10.5l0,0
					c1,6.8-3.7,13.2-10.5,14.2l0,0c-0.6,0.1-1.3,0.1-1.9,0.1l0,0C921.2,1084.5,915.8,1080,914.9,1073.8z M777.5,1084.3
					c-6.8-1-11.5-7.4-10.5-14.2l0,0c1-6.8,7.4-11.5,14.2-10.5l0,0c6.8,1,11.5,7.4,10.5,14.2l0,0c-0.9,6.2-6.3,10.6-12.4,10.6l0,0
					C778.8,1084.4,778.2,1084.4,777.5,1084.3z M963.5,1064.8c-2-6.6,1.8-13.6,8.4-15.6l0,0c6.6-2,13.6,1.8,15.6,8.4l0,0
					c2,6.6-1.8,13.6-8.4,15.6l0,0c-1.2,0.4-2.4,0.5-3.6,0.5l0,0C970.1,1073.6,965.1,1070.2,963.5,1064.8z M727.7,1073
					c-6.6-2-10.4-9-8.4-15.6l0,0c2-6.6,9-10.3,15.6-8.3l0,0c6.6,2,10.3,9,8.3,15.6l0,0c-1.6,5.4-6.6,8.9-12,8.9l0,0
					C730.1,1073.6,728.9,1073.4,727.7,1073z M1010.3,1048.8c-2.9-6.2-0.2-13.7,6.1-16.6l0,0l0,0l0,0c6.3-2.9,13.7-0.2,16.6,6l0,0
					c2.9,6.3,0.2,13.7-6.1,16.6l0,0c-1.7,0.8-3.5,1.2-5.3,1.2l0,0C1016.9,1056,1012.4,1053.4,1010.3,1048.8z M679.9,1054.8
					L679.9,1054.8c-6.2-2.9-9-10.4-6-16.6l0,0c2.9-6.2,10.3-9,16.6-6l0,0l0,0l0,0c6.3,2.9,9,10.4,6,16.6l0,0
					c-2.1,4.5-6.6,7.2-11.3,7.2l0,0C683.4,1055.9,681.6,1055.6,679.9,1054.8z M1054.3,1026.4c-3.8-5.8-2.1-13.5,3.7-17.3l0,0
					c5.8-3.8,13.5-2.1,17.3,3.7l0,0c3.8,5.8,2.1,13.5-3.7,17.3l0,0c-2.1,1.4-4.5,2-6.8,2l0,0
					C1060.7,1032.1,1056.7,1030.1,1054.3,1026.4z M635.2,1029.9L635.2,1029.9c-5.8-3.8-7.4-11.5-3.6-17.3l0,0
					c3.8-5.8,11.5-7.4,17.3-3.6l0,0c5.8,3.8,7.4,11.5,3.6,17.3l0,0c-2.4,3.7-6.4,5.7-10.5,5.7l0,0
					C639.7,1032,637.3,1031.3,635.2,1029.9z M1094.7,998c-4.5-5.2-4-13.1,1.2-17.6l0,0c5.2-4.5,13.1-4,17.6,1.2l0,0
					c4.5,5.2,4,13.1-1.2,17.6l0,0c-2.4,2.1-5.3,3.1-8.2,3.1l0,0C1100.7,1002.2,1097.2,1000.8,1094.7,998z M594.5,999L594.5,999
					c-5.2-4.5-5.7-12.5-1.2-17.6l0,0c4.6-5.2,12.5-5.7,17.6-1.2l0,0c5.2,4.5,5.7,12.5,1.2,17.6l0,0c-2.5,2.8-5.9,4.3-9.4,4.3l0,0
					C599.8,1002.1,596.8,1001.1,594.5,999z M1130.7,964.2c-5.2-4.5-5.8-12.4-1.3-17.6l0,0c0,0,0,0,0,0l0,0
					c4.5-5.2,12.4-5.8,17.6-1.3l0,0c5.2,4.5,5.8,12.4,1.3,17.6l0,0c-2.5,2.9-6,4.3-9.5,4.3l0,0
					C1136,967.2,1133.1,966.2,1130.7,964.2z M558.5,962.7L558.5,962.7c-4.5-5.2-3.9-13.1,1.3-17.6l0,0c5.2-4.5,13.1-3.9,17.6,1.3
					l0,0c4.5,5.2,3.9,13.1-1.3,17.6l0,0c-2.4,2-5.3,3-8.1,3l0,0C564.5,967,561,965.5,558.5,962.7z M1161.6,925.6
					c-5.8-3.7-7.5-11.5-3.8-17.3l0,0c3.7-5.8,11.5-7.5,17.3-3.8l0,0c5.8,3.7,7.5,11.5,3.8,17.3l0,0c-2.4,3.7-6.4,5.8-10.6,5.8l0,0
					C1166.1,927.6,1163.7,927,1161.6,925.6z M528,921.6L528,921.6c-3.7-5.8-2-13.5,3.8-17.3l0,0c5.8-3.7,13.5-2,17.3,3.8l0,0l0,0
					l0,0c3.7,5.8,2,13.5-3.8,17.3l0,0c-2.1,1.3-4.4,2-6.7,2l0,0C534.4,927.4,530.3,925.4,528,921.6z M1186.8,883.1
					c-6.3-2.9-9.1-10.3-6.2-16.6l0,0l0,0l0,0c2.9-6.3,10.3-9.1,16.5-6.2l0,0c6.3,2.9,9.1,10.3,6.2,16.6l0,0
					c-2.1,4.6-6.6,7.3-11.4,7.3l0,0C1190.2,884.2,1188.5,883.9,1186.8,883.1z M503.5,876.7c-2.9-6.3-0.1-13.7,6.2-16.6l0,0
					c6.3-2.8,13.7-0.1,16.5,6.2l0,0c2.9,6.3,0.1,13.7-6.2,16.6l0,0c-1.7,0.8-3.4,1.1-5.2,1.1l0,0C510.2,884,505.6,881.3,503.5,876.7
					z M1205.6,837.5c-6.6-1.9-10.4-8.9-8.5-15.5l0,0c1.9-6.6,8.9-10.4,15.5-8.5l0,0c6.6,1.9,10.4,8.9,8.5,15.5l0,0
					c-1.6,5.5-6.6,9-12,9l0,0C1208,838,1206.8,837.8,1205.6,837.5z M485.8,828.7c-1.9-6.6,1.9-13.6,8.5-15.5l0,0
					c6.6-1.9,13.6,1.9,15.5,8.5l0,0c1.9,6.6-1.9,13.6-8.5,15.5l0,0c-1.2,0.3-2.3,0.5-3.5,0.5l0,0
					C492.3,837.7,487.3,834.1,485.8,828.7z M1217.8,789.6c-6.8-1-11.6-7.3-10.6-14.1l0,0c1-6.8,7.3-11.6,14.1-10.6l0,0
					c6.8,1,11.6,7.3,10.6,14.1l0,0c-0.9,6.2-6.2,10.7-12.4,10.7l0,0C1219,789.7,1218.4,789.7,1217.8,789.6z M475,778.7L475,778.7
					c-1-6.8,3.8-13.2,10.6-14.1l0,0c6.8-1,13.2,3.8,14.1,10.6l0,0c0,0,0,0,0,0l0,0c1,6.8-3.8,13.2-10.6,14.1l0,0
					c-0.6,0.1-1.2,0.1-1.8,0.1l0,0C481.2,789.4,475.9,784.9,475,778.7z"/>
			</g>
			<g>
				<path fill="#BC3726" d="M1223.1,740.1c-3.3,0-6.5-1.3-8.8-3.7c-2.3-2.3-3.7-5.5-3.7-8.8s1.3-6.5,3.7-8.8
					c2.3-2.3,5.6-3.7,8.8-3.7s6.5,1.3,8.8,3.7c2.3,2.3,3.7,5.5,3.7,8.8s-1.3,6.5-3.7,8.8C1229.6,738.8,1226.4,740.1,1223.1,740.1z"
					/>
			</g>
		</g>
		<g>
			<g>
				<line fill="#BC3726" x1="555.9" y1="699.4" x2="555.9" y2="699.4"/>
			</g>
			<g>
				<path fill="#BC3726" d="M840.9,979.9c0-6.9,5.6-12.5,12.5-12.5l0,0c6.9,0,12.5,5.6,12.5,12.5l0,0c0,6.9-5.6,12.5-12.5,12.5l0,0
					C846.5,992.4,840.9,986.8,840.9,979.9z M891.7,979.4c-0.8-6.9,4.1-13.1,10.9-13.9l0,0l0,0l0,0c6.8-0.8,13.1,4.1,13.9,10.9l0,0
					c0.8,6.8-4.1,13.1-10.9,13.9l0,0c-0.5,0.1-1,0.1-1.5,0.1l0,0C897.9,990.4,892.5,985.7,891.7,979.4z M801.1,990.3
					c-6.9-0.8-11.8-7.1-10.9-13.9l0,0c0.8-6.8,7-11.8,13.9-10.9l0,0c6.9,0.8,11.7,7,10.9,13.9l0,0c-0.8,6.4-6.2,11-12.4,11l0,0
					C802.1,990.4,801.6,990.3,801.1,990.3z M941.9,971c-2-6.6,1.6-13.6,8.2-15.6l0,0c6.6-2,13.6,1.6,15.6,8.2l0,0
					c2,6.6-1.6,13.6-8.2,15.6l0,0c-1.2,0.4-2.5,0.6-3.7,0.6l0,0C948.5,979.8,943.5,976.4,941.9,971z M749.2,979.2
					c-6.6-2-10.3-9-8.2-15.7l0,0c2.1-6.6,9.1-10.3,15.7-8.2l0,0c6.6,2,10.3,9,8.2,15.6l0,0c-1.7,5.4-6.6,8.8-11.9,8.8l0,0
					C751.7,979.8,750.5,979.6,749.2,979.2z M989.7,953.8c-3.2-6.1-0.8-13.7,5.3-16.9l0,0l0,0l0,0c6.1-3.2,13.7-0.9,16.9,5.3l0,0
					c3.2,6.1,0.8,13.7-5.3,16.9v0c-1.9,1-3.8,1.4-5.8,1.4l0,0C996.3,960.5,991.9,958,989.7,953.8z M700.2,958.9
					c-6.1-3.2-8.5-10.8-5.2-16.9l0,0c3.2-6.1,10.8-8.5,16.9-5.3l0,0c6.1,3.2,8.5,10.8,5.2,16.9l0,0c-2.2,4.2-6.6,6.7-11.1,6.7l0,0
					C704.1,960.3,702.1,959.9,700.2,958.9z M1033.5,928.1c-4.3-5.4-3.3-13.3,2.1-17.5l0,0c5.4-4.3,13.3-3.3,17.5,2.1l0,0
					c4.2,5.4,3.3,13.3-2.1,17.5l0,0c-2.3,1.8-5,2.7-7.7,2.7l0,0C1039.7,932.9,1036,931.2,1033.5,928.1z M655.7,930.1
					c-5.4-4.3-6.4-12.1-2.1-17.5l0,0c4.3-5.4,12.1-6.4,17.5-2.1l0,0c5.4,4.3,6.4,12.1,2.1,17.5l0,0c-2.5,3.1-6.1,4.8-9.8,4.8l0,0
					C660.7,932.8,658,931.9,655.7,930.1z M1072.1,895c-5.2-4.6-5.6-12.5-1-17.7l0,0c4.6-5.2,12.5-5.6,17.6-1l0,0
					c5.2,4.6,5.6,12.5,1.1,17.7l0,0c-2.5,2.8-5.9,4.2-9.4,4.2l0,0C1077.4,898.1,1074.5,897.1,1072.1,895z M617.1,893.7
					c-4.6-5.2-4.1-13.1,1.1-17.7l0,0c5.2-4.6,13.1-4.1,17.6,1.1l0,0l0,0l0,0c4.6,5.2,4.1,13.1-1.1,17.7l0,0
					c-2.4,2.1-5.3,3.2-8.3,3.2l0,0C623,898,619.6,896.5,617.1,893.7z M1104.1,855.4c-5.9-3.6-7.8-11.3-4.2-17.2l0,0
					c3.6-5.9,11.3-7.8,17.2-4.2l0,0c5.9,3.6,7.8,11.3,4.2,17.2l0,0c-2.4,3.9-6.5,6-10.7,6l0,0
					C1108.3,857.3,1106.1,856.7,1104.1,855.4z M585.6,851c-3.6-5.9-1.7-13.6,4.2-17.2l0,0c5.9-3.6,13.6-1.7,17.2,4.2l0,0
					c0,0,0,0,0,0l0,0c3.6,5.9,1.7,13.6-4.2,17.2l0,0c-2,1.2-4.3,1.8-6.5,1.8l0,0C592.1,857.1,588,854.9,585.6,851z M1128.4,810.8
					c-6.5-2.5-9.7-9.7-7.2-16.1l0,0c2.5-6.5,9.7-9.7,16.1-7.2l0,0c6.5,2.5,9.7,9.7,7.2,16.1l0,0c-1.9,5-6.7,8.1-11.7,8.1l0,0
					C1131.4,811.6,1129.9,811.4,1128.4,810.8z M562.4,803.4c-2.5-6.5,0.8-13.7,7.2-16.1l0,0c6.4-2.5,13.7,0.8,16.1,7.2l0,0
					c2.5,6.5-0.8,13.7-7.2,16.1l0,0c-1.5,0.5-3,0.8-4.4,0.8l0,0C569,811.4,564.3,808.4,562.4,803.4z M1144.3,762.5
					c-6.8-1.2-11.3-7.8-10-14.5l0,0c1.2-6.8,7.8-11.3,14.5-10l0,0c6.8,1.2,11.3,7.8,10,14.5l0,0c-1.1,6-6.4,10.2-12.3,10.2l0,0
					C1145.8,762.7,1145,762.7,1144.3,762.5z M548.1,752.3c-1.2-6.8,3.3-13.3,10.1-14.5l0,0c6.8-1.2,13.3,3.3,14.5,10l0,0
					c0,0,0,0,0,0l0,0c1.2,6.8-3.3,13.3-10.1,14.5l0,0c-0.8,0.1-1.5,0.2-2.3,0.2l0,0C554.5,762.5,549.2,758.3,548.1,752.3z"/>
			</g>
			<g>
				<path fill="#BC3726" d="M1151.1,711.9c-3.3,0-6.5-1.3-8.8-3.7c-2.3-2.3-3.7-5.5-3.7-8.8s1.3-6.5,3.7-8.8
					c2.3-2.3,5.5-3.7,8.8-3.7s6.5,1.3,8.8,3.7c2.3,2.3,3.7,5.5,3.7,8.8c0,3.3-1.3,6.5-3.7,8.8
					C1157.6,710.6,1154.4,711.9,1151.1,711.9z"/>
			</g>
		</g>
		<g>
			<g>
				<path fill="#BC3726" d="M666.6,719.6c-3.3,0-6.5-1.3-8.8-3.7c-2.3-2.3-3.7-5.5-3.7-8.8c0-3.3,1.3-6.5,3.7-8.8
					c2.3-2.3,5.6-3.7,8.8-3.7s6.5,1.3,8.8,3.7c2.3,2.3,3.7,5.5,3.7,8.8c0,3.3-1.3,6.5-3.7,8.8C673.1,718.2,669.9,719.6,666.6,719.6z
					"/>
			</g>
			<g>
				<path fill="#BC3726" d="M840.9,883.2c0-6.9,5.6-12.5,12.5-12.5l0,0c6.9,0,12.5,5.6,12.5,12.5l0,0c0,6.9-5.6,12.5-12.5,12.5l0,0
					C846.5,895.7,840.9,890.1,840.9,883.2z M888.8,881.9c-1.4-6.8,2.9-13.4,9.6-14.8l0,0c6.8-1.4,13.4,2.9,14.8,9.6l0,0
					c1.4,6.8-2.9,13.4-9.6,14.8v0c-0.9,0.2-1.8,0.3-2.6,0.3l0,0C895.3,891.8,890.1,887.8,888.8,881.9z M803.2,891.5
					c-6.8-1.4-11.1-8.1-9.6-14.8l0,0c1.5-6.8,8.1-11.1,14.8-9.6l0,0l0,0l0,0c6.8,1.4,11,8.1,9.6,14.8l0,0c-1.3,5.9-6.4,9.9-12.2,9.9
					l0,0C805,891.8,804.1,891.7,803.2,891.5z M934.9,868.9c-3.2-6.1-0.8-13.7,5.3-16.9l0,0c6.1-3.2,13.7-0.8,16.9,5.3l0,0
					c3.2,6.1,0.8,13.7-5.3,16.9l0,0c-1.8,1-3.8,1.4-5.8,1.4l0,0C941.5,875.6,937.1,873.2,934.9,868.9z M755.1,874.1
					c-6.1-3.2-8.5-10.8-5.2-16.9l0,0c3.2-6.1,10.8-8.5,16.9-5.2l0,0c6.1,3.2,8.5,10.8,5.2,16.9l0,0c-2.2,4.3-6.6,6.7-11.1,6.7l0,0
					C759,875.6,757,875.1,755.1,874.1z M975.7,844c-4.7-5-4.5-12.9,0.5-17.7l0,0c5-4.7,12.9-4.5,17.7,0.6l0,0
					c4.7,5,4.5,12.9-0.5,17.7l0,0c-2.4,2.3-5.5,3.4-8.6,3.4l0,0C981.5,847.9,978.2,846.6,975.7,844z M713.5,844.5
					c-5-4.7-5.3-12.7-0.5-17.7l0,0c4.7-5,12.6-5.3,17.7-0.5l0,0c5,4.7,5.3,12.6,0.5,17.7l0,0c-2.5,2.6-5.8,3.9-9.1,3.9l0,0
					C719,847.8,715.9,846.7,713.5,844.5z M1008.4,809c-5.9-3.6-7.8-11.3-4.2-17.2l0,0c3.6-5.9,11.3-7.8,17.2-4.2l0,0
					c5.9,3.6,7.8,11.3,4.2,17.2l0,0c-2.3,3.9-6.5,6-10.7,6l0,0C1012.7,810.8,1010.5,810.2,1008.4,809z M681.3,804.7
					c-3.6-5.9-1.7-13.6,4.2-17.2l0,0c5.9-3.6,13.6-1.7,17.2,4.2l0,0c3.6,5.9,1.7,13.6-4.2,17.2l0,0c-2,1.2-4.3,1.8-6.5,1.8l0,0
					C687.8,810.7,683.7,808.6,681.3,804.7z M1030.6,766.6c-6.6-1.8-10.5-8.8-8.7-15.4l0,0l0,0l0,0c1.8-6.7,8.8-10.5,15.4-8.7l0,0
					c6.6,1.9,10.5,8.8,8.7,15.4l0,0c-1.5,5.5-6.6,9.1-12,9.1l0,0C1032.8,767,1031.7,766.9,1030.6,766.6z M661,757.8
					c-1.8-6.6,2-13.5,8.7-15.4l0,0c6.6-1.9,13.5,2,15.4,8.7l0,0c1.8,6.7-2,13.5-8.7,15.4l0,0c-1.1,0.3-2.2,0.5-3.4,0.5l0,0
					C667.6,766.9,662.5,763.3,661,757.8z"/>
			</g>
			<g>
				<path fill="#BC3726" d="M1040.4,719.6c-3.3,0-6.5-1.3-8.8-3.7c-2.3-2.3-3.7-5.5-3.7-8.8s1.3-6.5,3.7-8.8
					c2.3-2.3,5.5-3.7,8.8-3.7s6.5,1.3,8.8,3.7c2.3,2.3,3.7,5.5,3.7,8.8s-1.3,6.5-3.7,8.8C1046.9,718.2,1043.7,719.6,1040.4,719.6z"
					/>
			</g>
		</g>
		<g>
			<path fill="#FBCB2F" d="M868.5,941.1h-30c-68.8,0-133.5-26.8-182.1-75.4s-75.4-113.3-75.4-182.1v-16.7h25v16.7
				c0,62.1,24.2,120.5,68.1,164.5s102.3,68.1,164.5,68.1h30c62.1,0,120.5-24.2,164.5-68.1c43.9-43.9,68.1-102.3,68.1-164.5v-16.7h25
				v16.7c0,68.8-26.8,133.5-75.4,182.1C1002,914.3,937.3,941.1,868.5,941.1z"/>
		</g>
		<g>
			<path fill="#DD7662" d="M904.1,757.9l-14.8,7.9c-22.4,11.9-49.2,11.9-71.6,0l-14.8-7.9c-20.1-10.7-37.7-24.7-52.4-41.2v30.7
				c0,56.9,46.1,103,103,103h0c56.9,0,103-46.1,103-103v-30.7C941.8,733.2,924.1,747.2,904.1,757.9z"/>
			<path fill="#B54F41" d="M750.5,523.1v193.7c14.7,16.4,32.3,30.4,52.4,41.2l14.8,7.9c22.4,11.9,49.2,11.9,71.6,0l14.8-7.9
				c20.1-10.7,37.7-24.7,52.4-41.2V523.1H750.5z"/>
		</g>
		<g>
			<polygon fill="#007FA5" points="553.3,811.1 581.9,889.9 750.5,889.9 733.2,811.1 			"/>
			<polygon fill="#006B85" points="733.2,811.1 750.5,889.9 750.5,811.1 			"/>
			<polygon fill="#EB902C" points="733.2,811.1 750.5,811.1 750.5,732.2 715.9,732.2 			"/>
			<path fill="#F0AA33" d="M715.9,732.2H515.3c11.2,14.1,20.3,30.1,26.6,47.5l11.4,31.4h180L715.9,732.2z"/>
			<path fill="#007FA5" d="M750.5,1047.6L750.5,1047.6l0-78.8H625.9C657.8,1006.9,701.1,1034.8,750.5,1047.6z"/>
			<polygon fill="#006B85" points="715.9,732.2 750.5,732.2 750.5,653.4 698.6,653.4 			"/>
			<path fill="#007FA5" d="M698.6,653.4H415.7c1.9,10.5,9.3,19.7,20.2,23.4c31.6,10.5,59.1,30,79.3,55.5h200.6L698.6,653.4z"/>
			<polygon fill="#006B85" points="646.7,416.9 750.5,416.9 750.5,338.1 629.4,338.1 			"/>
			<polygon fill="#007FA5" points="629.4,338.1 533.5,338.1 502.9,416.9 646.7,416.9 			"/>
			<path fill="#F0AA33" d="M584.4,896.7c9.7,26.6,23.8,50.9,41.5,72h124.6v-78.8H581.9L584.4,896.7z"/>
			<polygon fill="#EB902C" points="698.6,653.4 750.5,653.4 750.5,574.6 681.3,574.6 			"/>
			<path fill="#F0AA33" d="M681.3,574.6H441.6l-24.3,62.5c-2.1,5.4-2.5,11-1.6,16.3h282.9L681.3,574.6z"/>
			<polygon fill="#EB902C" points="629.4,338.1 750.5,338.1 750.5,295.7 701.3,259.3 612.1,259.3 			"/>
			<polygon fill="#F0AA33" points="612.1,259.3 564.1,259.3 533.5,338.1 629.4,338.1 			"/>
			<polygon fill="#006B85" points="701.3,259.3 594.8,180.5 612.1,259.3 			"/>
			<polygon fill="#007FA5" points="594.8,180.5 594.8,180.5 564.1,259.3 612.1,259.3 			"/>
			<polygon fill="#EB902C" points="664,495.8 750.5,495.8 750.5,416.9 646.7,416.9 			"/>
			<polygon fill="#F0AA33" points="646.7,416.9 502.9,416.9 472.2,495.8 664,495.8 			"/>
			<polygon fill="#007FA5" points="664,495.8 472.2,495.8 441.6,574.6 681.3,574.6 			"/>
			<polygon fill="#006B85" points="681.3,574.6 750.5,574.6 750.5,495.8 664,495.8 			"/>
		</g>
		<g>
			<polygon fill="#007FA5" points="1153.7,811.1 1125,889.9 956.5,889.9 973.8,811.1 			"/>
			<polygon fill="#006B85" points="973.8,811.1 956.5,889.9 956.5,811.1 			"/>
			<polygon fill="#EB902C" points="973.8,811.1 956.5,811.1 956.5,732.2 991.1,732.2 			"/>
			<path fill="#F0AA33" d="M991.1,732.2h200.6c-11.2,14.1-20.3,30.1-26.6,47.5l-11.4,31.4h-180L991.1,732.2z"/>
			<path fill="#007FA5" d="M956.5,1047.6L956.5,1047.6l0-78.8h124.6C1049.2,1006.9,1005.9,1034.8,956.5,1047.6z"/>
			<polygon fill="#006B85" points="991.1,732.2 956.5,732.2 956.5,653.4 1008.4,653.4 			"/>
			<path fill="#007FA5" d="M1008.4,653.4h282.9c-1.9,10.5-9.3,19.7-20.2,23.4c-31.6,10.5-59.1,30-79.3,55.5H991.1L1008.4,653.4z"/>
			<polygon fill="#006B85" points="1060.3,416.9 956.5,416.9 956.5,338.1 1077.6,338.1 			"/>
			<polygon fill="#007FA5" points="1077.6,338.1 1173.5,338.1 1204.1,416.9 1060.3,416.9 			"/>
			<path fill="#F0AA33" d="M1122.6,896.7c-9.7,26.6-23.8,50.9-41.5,72H956.5v-78.8H1125L1122.6,896.7z"/>
			<polygon fill="#EB902C" points="1008.4,653.4 956.5,653.4 956.5,574.6 1025.7,574.6 			"/>
			<path fill="#F0AA33" d="M1025.7,574.6h239.7l24.3,62.5c2.1,5.4,2.5,11,1.6,16.3h-282.9L1025.7,574.6z"/>
			<polygon fill="#EB902C" points="1077.6,338.1 956.5,338.1 956.5,295.7 1005.7,259.3 1094.9,259.3 			"/>
			<polygon fill="#F0AA33" points="1094.9,259.3 1142.9,259.3 1173.5,338.1 1077.6,338.1 			"/>
			<polygon fill="#006B85" points="1005.7,259.3 1112.2,180.5 1094.9,259.3 			"/>
			<polygon fill="#007FA5" points="1112.2,180.5 1112.2,180.5 1142.9,259.3 1094.9,259.3 			"/>
			<polygon fill="#EB902C" points="1043,495.8 956.5,495.8 956.5,416.9 1060.3,416.9 			"/>
			<polygon fill="#F0AA33" points="1060.3,416.9 1204.1,416.9 1234.8,495.8 1043,495.8 			"/>
			<polygon fill="#007FA5" points="1043,495.8 1234.8,495.8 1265.4,574.6 1025.7,574.6 			"/>
			<polygon fill="#006B85" points="1025.7,574.6 956.5,574.6 956.5,495.8 1043,495.8 			"/>
		</g>
		<path fill="#DD7662" d="M904.1,690.3l-14.8,7.9c-22.4,11.9-49.2,11.9-71.6,0l-14.8-7.9c-62.1-33.1-101-97.8-101-168.2V367.2h303
			v154.9C1005,592.5,966.2,657.2,904.1,690.3z"/>
		<rect x="702" y="295.7" fill="#FBCB2F" width="303" height="71.5"/>
		<g>
			<path fill="#F0AA33" d="M962.7,295.7l86.3-148c-23.4-10.1-47.5-18.3-71.9-24.6l-56.5,172.7H962.7z"/>
			<path fill="#007FA5" d="M920.7,295.7L977.2,123c-25.9-6.7-52.3-11.3-78.8-13.7L877,295.7H920.7z"/>
			<path fill="#F0AA33" d="M853.5,295.7H877l21.4-186.3c-29.9-2.7-59.9-2.7-89.8,0L830,295.7H853.5z"/>
			<path fill="#007FA5" d="M1112.2,180.5c-20.4-12.6-41.5-23.5-63.2-32.8l-86.3,148h-42.1H877h-23.5H830h-43.6h-42.1l-86.3-148
				c-21.6,9.3-42.7,20.2-63.2,32.8v0L702,295.7h151.5H1005L1112.2,180.5L1112.2,180.5z"/>
			<path fill="#F0AA33" d="M786.3,295.7L729.8,123c-24.4,6.3-48.4,14.5-71.9,24.6l86.3,148H786.3z"/>
			<path fill="#007FA5" d="M830,295.7l-21.4-186.3c-26.5,2.4-52.9,7-78.8,13.7l56.5,172.7H830z"/>
		</g>
		<path fill="#322E5F" d="M823,417.7h-90c-10.5,0-19-8.5-19-19v0h90C814.5,398.7,823,407.2,823,417.7L823,417.7z"/>
		<g>
			<path fill="#322E5F" d="M815.6,456l-4.7-10.2c-3.7-8-11.8-13.2-20.7-13.2h-30.4c-4.5,0-8.8,1.7-12.1,4.7l-31.3,29.1
				c-0.7,0.6,0.1,1.8,0.9,1.3l6.5-3.4h86.5C814.6,464.3,817.4,459.9,815.6,456z"/>
			<g>
				<path fill="#FFFFFF" d="M785.3,458.3h24.8l-4.6-10c-2.7-5.9-8.7-9.7-15.2-9.7h-2.3c1.7,2.4,2.7,5.3,2.7,8.5
					C790.6,451.7,788.5,455.7,785.3,458.3z"/>
				<path fill="#FFFFFF" d="M761.7,447.1c0-3.2,1-6.1,2.7-8.5h-4.7c-3,0-5.8,1.1-8,3.1L734,458.3H767
					C763.8,455.7,761.7,451.7,761.7,447.1z"/>
				<path fill="#322E5F" d="M790.6,447.1c0-3.2-1-6.1-2.7-8.5h-23.4c-1.7,2.4-2.7,5.3-2.7,8.5c0,4.5,2.1,8.6,5.3,11.2h18.3
					C788.5,455.7,790.6,451.7,790.6,447.1z"/>
			</g>
		</g>
		<path fill="#322E5F" d="M884,417.7h90c10.5,0,19-8.5,19-19v0h-90C892.5,398.7,884,407.2,884,417.7L884,417.7z"/>
		<g>
			<path fill="#322E5F" d="M891.4,456l4.7-10.2c3.7-8,11.8-13.2,20.7-13.2h30.4c4.5,0,8.8,1.7,12.1,4.7l31.3,29.1
				c0.7,0.6-0.1,1.8-0.9,1.3l-6.5-3.4h-86.5C892.4,464.3,889.6,459.9,891.4,456z"/>
			<g>
				<path fill="#FFFFFF" d="M921.7,458.3h-24.8l4.6-10c2.7-5.9,8.7-9.7,15.2-9.7h2.3c-1.7,2.4-2.7,5.3-2.7,8.5
					C916.4,451.7,918.5,455.7,921.7,458.3z"/>
				<path fill="#FFFFFF" d="M945.3,447.1c0-3.2-1-6.1-2.7-8.5h4.7c3,0,5.8,1.1,8,3.1l17.8,16.5H940
					C943.2,455.7,945.3,451.7,945.3,447.1z"/>
				<path fill="#322E5F" d="M916.4,447.1c0-3.2,1-6.1,2.7-8.5h23.4c1.7,2.4,2.7,5.3,2.7,8.5c0,4.5-2.1,8.6-5.3,11.2h-18.3
					C918.5,455.7,916.4,451.7,916.4,447.1z"/>
			</g>
		</g>
		<g>
			<path fill="#C1554F" d="M872.6,628.9h-38.2c-11,0-23.5-4.8-32.7-13.3l-9.1-8.4h121.9l-9.1,8.4
				C896.1,624.1,883.6,628.9,872.6,628.9z"/>
			<path fill="#CD6257" d="M859.1,592.6L859.1,592.6c-3.4,2-7.8,2-11.2,0l0,0c-8.4-4.9-19.2-5.1-27.8-0.4l-27.6,15h60.9h60.9
				l-27.6-15C878.3,587.5,867.5,587.7,859.1,592.6z"/>
		</g>
		<linearGradient id="SVGID_1_" gradientUnits="userSpaceOnUse" x1="853.4998" y1="559.4326" x2="853.4998" y2="421.5909">
			<stop  offset="0" style="stop-color:#B54F41"/>
			<stop  offset="0.906" style="stop-color:#B54F41;stop-opacity:0"/>
		</linearGradient>
		<path fill="url(#SVGID_1_)" d="M853.5,559.4L853.5,559.4c-7.9,0-14.3-6.4-14.3-14.3V421.6h28.6v123.5
			C867.8,553,861.4,559.4,853.5,559.4z"/>
		<path fill="#322E5F" d="M845.4,563.3l-23.6-6.7c-2.2-0.6-4.4,1-4.4,3.3l0,0c0,1.9,1.5,3.4,3.4,3.4H845.4z"/>
		<path fill="#322E5F" d="M861.6,563.3l23.6-6.7c2.2-0.6,4.4,1,4.4,3.3l0,0c0,1.9-1.5,3.4-3.4,3.4H861.6z"/>
		<linearGradient id="SVGID_2_" gradientUnits="userSpaceOnUse" x1="723.5695" y1="613.7033" x2="766.712" y2="582.3585">
			<stop  offset="0.2922" style="stop-color:#B54F41;stop-opacity:0"/>
			<stop  offset="1" style="stop-color:#B54F41"/>
		</linearGradient>
		<path fill="url(#SVGID_2_)" d="M741.7,558.8l-38.6-16c5.3,48.3,28.9,92.6,65.4,123.9v-67.8C768.5,581.4,757.9,565.5,741.7,558.8z"
			/>
		
			<linearGradient id="SVGID_3_" gradientUnits="userSpaceOnUse" x1="716.5699" y1="613.7033" x2="759.7123" y2="582.3585" gradientTransform="matrix(-1 0 0 1 1699.9999 0)">
			<stop  offset="0.2922" style="stop-color:#B54F41;stop-opacity:0"/>
			<stop  offset="1" style="stop-color:#B54F41"/>
		</linearGradient>
		<path fill="url(#SVGID_3_)" d="M965.3,558.8l38.6-16c-5.3,48.3-28.9,92.6-65.4,123.9v-67.8C938.5,581.4,949.1,565.5,965.3,558.8z"
			/>
		<path fill="#C1554F" d="M781.2,480.2h-18.4c-11.7,0-22.6-6-28.8-15.8v0h76.1v0C803.8,474.2,792.9,480.2,781.2,480.2z"/>
		<path fill="#C1554F" d="M925.8,480.2h18.4c11.7,0,22.6-6,28.8-15.8v0h-76.1v0C903.2,474.2,914.1,480.2,925.8,480.2z"/>
		<path fill="#FDF5AD" d="M1246.7,745.4c16.6-18.7,27-46.7,27-78.6c0-26.5-7.5-49-21.6-65.1c-13.9-15.8-33.5-24.6-55.2-24.6
			c-21.7,0-41.3,8.7-55.2,24.6c-14.1,16.1-21.6,38.6-21.6,65.1c0,31.9,10.4,60,27,78.6h-87.4v39.1h82.4c19.5,0,35.2,15.8,35.2,35.2
			v251.8h39.1V819.7c0-19.5,15.8-35.2,35.2-35.2h82.3v-39.1H1246.7z M1197,617.3c23,0,36.7,18.5,36.7,49.5
			c0,29.5-15.1,62.3-36.7,62.3s-36.7-32.9-36.7-62.3C1160.3,635.8,1174,617.3,1197,617.3z"/>
		<g>
			<path fill="#DD7662" d="M1072.6,1043.7h125.9c19,0,35.6-12.6,40.9-30.8l29.3-101.7l14-5.3c12.3-4.7,20.5-16.4,20.5-29.6v0
				c0-17.5-14.2-31.6-31.6-31.6h-120.3c-28.3,0-55.6,10.8-76.2,30.1l-89.4,83.6l-483.4,241.1c-54.1,27-74.6,93.7-45.1,146.4l0,0
				c31,55.3,103.4,71.2,154.6,33.8L1072.6,1043.7z"/>
			<g>
				<polygon fill="#006B85" points="905.5,1104.5 934,1152.5 976.6,1121.4 949.8,1076.1 				"/>
				<polygon fill="#007FA5" points="949.8,1076.1 900.3,992.6 853.1,1016.1 905.5,1104.5 				"/>
				<polygon fill="#F0AA33" points="808.4,1166.8 840.3,1220.8 848.7,1214.7 817,1161.3 				"/>
				<polygon fill="#F0AA33" points="758.8,1063.1 749.6,1067.7 808.4,1166.8 817,1161.3 				"/>
				<polygon fill="#006B85" points="817,1161.3 848.7,1214.7 891.3,1183.6 861.3,1132.9 				"/>
				<polygon fill="#007FA5" points="861.3,1132.9 806,1039.6 758.8,1063.1 817,1161.3 				"/>
				<polygon fill="#F0AA33" points="905.5,1104.5 853.1,1016.1 806,1039.6 861.3,1132.9 				"/>
				<polygon fill="#EB902C" points="861.3,1132.9 891.3,1183.6 934,1152.5 905.5,1104.5 				"/>
				<polygon fill="#EB902C" points="949.8,1076.1 976.6,1121.4 1019.3,1090.3 994,1047.7 				"/>
				<polygon fill="#F0AA33" points="994,1047.7 947.4,969.1 900.3,992.6 949.8,1076.1 				"/>
				<polygon fill="#006B85" points="994,1047.7 1019.3,1090.3 1061.9,1059.3 1038.3,1019.4 				"/>
				<polygon fill="#007FA5" points="1038.3,1019.4 1009.1,970.1 993,946.3 947.4,969.1 994,1047.7 				"/>
				<polygon fill="#F0AA33" points="1041.2,1017.5 1009.1,970.1 1038.3,1019.4 				"/>
				<polygon fill="#F0AA33" points="1038.3,1019.4 1061.9,1059.3 1067,1055.6 1041.2,1017.5 				"/>
			</g>
			<g>
				<path fill="#FBCB2F" d="M1054.3,1059.1L985,956.9c-3.9-5.7-2.4-13.5,3.3-17.4l0,0c5.7-3.9,13.5-2.4,17.4,3.3l69.3,102.2
					c3.9,5.7,2.4,13.5-3.3,17.4l0,0C1065.9,1066.3,1058.2,1064.8,1054.3,1059.1z"/>
			</g>
			<g>
				<path fill="#FBCB2F" d="M826.5,1221.9L742,1079.3c-3.5-5.9-1.6-13.6,4.4-17.1l0,0c5.9-3.5,13.6-1.6,17.1,4.4l84.5,142.5
					c3.5,5.9,1.6,13.6-4.4,17.1l0,0C837.6,1229.8,830,1227.8,826.5,1221.9z"/>
			</g>
		</g>
		<g>
			<path fill="#2B9FBD" d="M512.8,478.8c-1.2,0-2.5,0-3.7,0C510.4,478.8,511.6,478.8,512.8,478.8
				C512.8,478.8,512.8,478.8,512.8,478.8z"/>
			<path fill="#2B9FBD" d="M366.1,607.2c0,0.2,0,0.4-0.1,0.7c0.1-0.9,0.2-1.8,0.4-2.8C366.3,605.8,366.2,606.5,366.1,607.2z"/>
			<path fill="#2B9FBD" d="M641.9,554.3c0.5,0.9,1,1.7,1.4,2.6C642.8,556,642.4,555.2,641.9,554.3z"/>
			<path fill="#2B9FBD" d="M611.2,681.4c0.6-1,1.1-2,1.6-3.1C612.3,679.3,611.8,680.3,611.2,681.4z"/>
			<path fill="#2B9FBD" d="M639.6,550.4c0.4,0.7,0.8,1.3,1.2,2C640.4,551.7,640,551,639.6,550.4z"/>
			<path fill="#2B9FBD" d="M660,643c0.6-5.3,0.9-10.7,0.9-16.2c0-24.4-5.9-47.8-16.9-68.8c3.2,6,5.9,12.3,8.3,18.7l-33.5,12
				c4.3,12,6.6,24.9,6.6,38c0,18.3-4.4,35.9-12.4,51.4c6.3-12.2,10.3-25.3,11.8-39.1L660,643z"/>
			<path fill="#2B9FBD" d="M553,731.9c-1.3,0.5-2.7,1-4,1.4c-1.8,0.6-3.6,1.3-5.3,2c1.8-0.7,3.5-1.4,5.3-2
				C550.3,732.9,551.6,732.5,553,731.9z"/>
			<path fill="#2B9FBD" d="M512.8,514.4c0.9,0,1.8,0,2.7,0C514.6,514.4,513.7,514.4,512.8,514.4
				C512.8,514.4,512.8,514.4,512.8,514.4z"/>
			<path fill="#2B9FBD" d="M536.3,480.6c1.2,0.2,2.4,0.4,3.5,0.6C538.6,481,537.5,480.8,536.3,480.6z"/>
			<path fill="#2B9FBD" d="M620.4,525.2c-1-1-2-2.1-3-3.1c-21.4-21.4-48.2-35.4-77.3-40.9c8.4,1.6,16.7,3.9,24.8,6.9l-12.5,33.3
				c14.8,5.6,28.4,14.3,39.9,25.8c1.3,1.3,2.6,2.7,3.9,4c-0.5-0.6-1-1.2-1.6-1.7L620.4,525.2z"/>
			<path fill="#2B9FBD" d="M573.3,762c-1.1,0.5-2.2,1-3.3,1.4C571.1,763,572.2,762.5,573.3,762z"/>
			<path fill="#2B9FBD" d="M611.1,681.7c-8.5,15.3-20.5,28.4-35.2,38.3l20,29.4c-6.1,4.1-12.4,7.8-19,10.9
				c27.4-13.1,49.7-34.2,64.4-59.8l-30.8-17.7C610.6,682.5,610.8,682.1,611.1,681.7z"/>
			<path fill="#2B9FBD" d="M576.6,760.5c-1,0.5-2,0.9-3,1.4C574.6,761.4,575.6,760.9,576.6,760.5z"/>
			<path fill="#2B9FBD" d="M527.7,744.4C507.5,759,495,782.4,495,808v592h0v-25.8h35.6v-59.3H495v-53.7h35.6V1202H495v-53.7h35.6
				v-59.2H495v-53.7h35.6v-59.2H495v-53.7h35.6v-59.2H495v-53.7h35.6V808c0-14.1,7.1-27.1,18.4-35.1c-0.2,0.1-0.3,0.2-0.5,0.3
				L527.7,744.4z"/>
			<path fill="#2B9FBD" d="M505.1,479c-23.2,1.2-44.9,7.7-64.1,18.4l17.3,31c-13.6,7.6-25.3,17.7-34.8,30.1L395.2,537
				c-13.5,17.6-23.1,38.3-27.6,60.8l34.9,7c-0.1,0.3-0.1,0.6-0.2,0.9c9.6-50.1,52.6-88.6,104.9-91.1c-0.1,0-0.2,0-0.3,0L505.1,479z"
				/>
			<path fill="#2B9FBD" d="M367.6,597.7c0,0.2-0.1,0.4-0.1,0.6C367.6,598.1,367.6,597.9,367.6,597.7L367.6,597.7z"/>
			<path fill="#FDF5AD" d="M367.7,597.7c0,0.2-0.1,0.4-0.1,0.6c-0.2,0.9-0.4,1.9-0.5,2.8c0,0.2-0.1,0.3-0.1,0.5
				c-0.2,1.1-0.4,2.1-0.5,3.2c0,0.1,0,0.1,0,0.2c-0.1,0.9-0.3,1.8-0.4,2.8c-1,10.2,7,19,17.3,19h0.8c8.8,0,16.1-6.5,17.3-15.2
				c0.1-0.4,0.1-0.8,0.2-1.2c0-0.2,0.1-0.3,0.1-0.5c0.1-0.6,0.2-1.3,0.3-1.9c0.1-0.3,0.1-0.6,0.2-1c0.1-0.5,0.2-0.9,0.3-1.4
				c0.1-0.3,0.1-0.6,0.2-0.9L367.7,597.7z"/>
			<path fill="#2B9FBD" d="M618.7,588.8L618.7,588.8c-1.9-5.4-4.3-10.7-7.1-15.8C614.4,578.1,616.7,583.4,618.7,588.8z"/>
			<path fill="#2B9FBD" d="M575.9,720c-3.1,2.1-6.3,4-9.5,5.8C569.6,724,572.8,722.1,575.9,720L575.9,720z"/>
			<rect x="530.6" y="1035.5" fill="#2B9FBD" width="0" height="53.7"/>
			<rect x="530.6" y="809.8" fill="#2B9FBD" width="0" height="53.7"/>
			<rect x="530.6" y="922.6" fill="#2B9FBD" width="0" height="53.7"/>
			<path fill="#2B9FBD" d="M641.2,700.6c0.1-0.2,0.2-0.3,0.3-0.5C641.4,700.3,641.3,700.4,641.2,700.6L641.2,700.6z"/>
			<rect x="530.6" y="1148.3" fill="#2B9FBD" width="0" height="53.7"/>
			<rect x="530.6" y="1261.2" fill="#2B9FBD" width="0" height="53.7"/>
			<path fill="#2B9FBD" d="M527.7,744.4L527.7,744.4c0.2-0.1,0.3-0.2,0.5-0.4C528,744.2,527.8,744.3,527.7,744.4z"/>
			<path fill="#2B9FBD" d="M620.5,525.2L620.5,525.2c0.6,0.6,1.1,1.2,1.7,1.8C621.6,526.4,621,525.8,620.5,525.2z"/>
			<path fill="#2B9FBD" d="M441,497.4L441,497.4c-17.9,9.9-33.3,23.2-45.8,39.5l0,0C407.6,520.9,423.2,507.4,441,497.4z"/>
			<path fill="#2B9FBD" d="M510,514.4c0.9,0,1.9,0,2.8,0c0,0,0,0,0,0C511.9,514.4,510.9,514.4,510,514.4z"/>
			<path fill="#2B9FBD" d="M555.8,768.9c1.5-0.7,3-1.3,4.6-1.9c0.1-0.1,0.3-0.1,0.4-0.2c-0.2,0.1-0.3,0.1-0.5,0.2
				C558.8,767.6,557.2,768.2,555.8,768.9z"/>
			<path fill="#2B9FBD" d="M644,695.5c8.6-16.4,14-34,16-52.5l0,0C657.9,661.6,652.4,679.4,644,695.5z"/>
			<path fill="#2B9FBD" d="M552.4,521.5L552.4,521.5c-6.2-2.3-12.5-4.1-19-5.3C539.9,517.4,546.2,519.2,552.4,521.5z"/>
			<path fill="#2B9FBD" d="M512.8,478.8C512.8,478.8,512.8,478.8,512.8,478.8c1.2,0,2.4,0,3.5,0C515.2,478.8,514,478.8,512.8,478.8z
				"/>
			<path fill="#2B9FBD" d="M505.1,479L505.1,479c0.1,0,0.2,0,0.3,0C505.3,479,505.2,479,505.1,479z"/>
			<rect x="495" y="809.8" fill="#FDF5AD" width="35.6" height="53.7"/>
			<rect x="495" y="1035.5" fill="#FDF5AD" width="35.6" height="53.7"/>
			<path fill="#FDF5AD" d="M624.6,639.2c-1.5,13.8-5.5,26.9-11.8,39.1c0,0,0,0,0,0c-0.5,1-1.1,2.1-1.6,3.1c-0.1,0.1-0.1,0.2-0.2,0.3
				c-0.2,0.4-0.4,0.8-0.7,1.2l30.8,17.7c0.1-0.2,0.2-0.3,0.3-0.5c0.4-0.7,0.8-1.4,1.2-2.1c0.3-0.5,0.5-0.9,0.8-1.4
				c0.2-0.3,0.4-0.7,0.6-1c8.4-16.1,14-33.9,16-52.5L624.6,639.2z"/>
			<rect x="495" y="1148.3" fill="#FDF5AD" width="35.6" height="53.7"/>
			<path fill="#FDF5AD" d="M575.9,720c-3.1,2.1-6.2,4-9.5,5.8c-0.1,0-0.1,0.1-0.2,0.1c-0.8,0.4-1.7,0.9-2.5,1.3
				c-0.4,0.2-0.9,0.4-1.3,0.7c-0.7,0.3-1.3,0.6-2,1c-0.7,0.3-1.3,0.6-2,0.9c-0.5,0.2-1.1,0.5-1.6,0.7c-0.9,0.4-1.8,0.8-2.8,1.1
				c-0.3,0.1-0.7,0.3-1,0.4c-1.3,0.5-2.7,1-4,1.4c-1.8,0.6-3.6,1.3-5.3,2c-0.1,0-0.2,0.1-0.3,0.1c-0.8,0.3-1.5,0.7-2.2,1
				c-0.2,0.1-0.4,0.2-0.6,0.3c-0.7,0.3-1.4,0.7-2.1,1c-0.2,0.1-0.4,0.2-0.6,0.3c-0.7,0.3-1.3,0.7-2,1.1c-0.2,0.1-0.5,0.2-0.7,0.4
				c-0.6,0.4-1.3,0.7-1.9,1.1c-0.2,0.1-0.5,0.3-0.7,0.4c-0.6,0.4-1.2,0.8-1.9,1.2c-0.2,0.2-0.5,0.3-0.7,0.5
				c-0.6,0.4-1.2,0.8-1.8,1.2c-0.2,0.1-0.3,0.2-0.5,0.4l20.9,28.8c0.2-0.1,0.3-0.2,0.5-0.3c0.3-0.2,0.5-0.4,0.8-0.5
				c0.2-0.1,0.4-0.2,0.5-0.4c0.3-0.2,0.6-0.4,0.9-0.6c0.2-0.1,0.3-0.2,0.5-0.3c0.3-0.2,0.7-0.4,1-0.6c0.1-0.1,0.3-0.1,0.4-0.2
				c0.4-0.2,0.7-0.4,1.1-0.6c0.1,0,0.2-0.1,0.3-0.1c0.4-0.2,0.8-0.4,1.3-0.6c0,0,0,0,0.1,0c1.5-0.7,3-1.3,4.6-1.9
				c0.2-0.1,0.3-0.1,0.5-0.2c1.2-0.4,2.4-0.8,3.6-1.3c0.3-0.1,0.7-0.3,1-0.4c1.3-0.5,2.6-1,3.9-1.6c0.2-0.1,0.4-0.2,0.6-0.3
				c1.1-0.5,2.2-0.9,3.3-1.4c0.1,0,0.2-0.1,0.3-0.1c1-0.5,2-0.9,3-1.4c0.1,0,0.1-0.1,0.2-0.1c6.6-3.2,12.9-6.8,19-10.9L575.9,720z"
				/>
			<rect x="495" y="922.6" fill="#FDF5AD" width="35.6" height="53.7"/>
			<path fill="#FDF5AD" d="M540.2,481.3c-0.1,0-0.2,0-0.3-0.1c-1.2-0.2-2.4-0.4-3.5-0.6c-0.1,0-0.2,0-0.3,0
				c-0.9-0.1-1.8-0.3-2.7-0.4c-0.3,0-0.6-0.1-0.9-0.1c-0.8-0.1-1.5-0.2-2.3-0.3c-0.4-0.1-0.9-0.1-1.3-0.1c-0.7-0.1-1.3-0.1-2-0.2
				c-0.6-0.1-1.1-0.1-1.7-0.1c-0.6,0-1.2-0.1-1.7-0.1c-0.7,0-1.3-0.1-2-0.1c-0.5,0-1-0.1-1.5-0.1c-0.8,0-1.6-0.1-2.4-0.1
				c-0.4,0-0.8,0-1.2,0c-1.2,0-2.4,0-3.5,0c-1.2,0-2.5,0-3.7,0c-0.3,0-0.7,0-1,0c-0.9,0-1.8,0.1-2.6,0.1c-0.1,0-0.2,0-0.3,0
				l1.8,35.5c0.1,0,0.2,0,0.3,0c0.6,0,1.3-0.1,1.9-0.1c0.3,0,0.6,0,0.9,0c0.9,0,1.9,0,2.8,0c0,0,0,0,0,0c0,0,0,0,0,0
				c0.9,0,1.8,0,2.7,0c0.3,0,0.5,0,0.8,0c0.6,0,1.3,0,1.9,0.1c0.3,0,0.6,0,1,0.1c0.6,0,1.1,0.1,1.7,0.1c0.4,0,0.7,0.1,1.1,0.1
				c0.5,0,1.1,0.1,1.6,0.1c0.4,0,0.8,0.1,1.2,0.1c0.5,0.1,1,0.1,1.4,0.2c0.4,0.1,0.9,0.1,1.3,0.2c0.4,0.1,0.8,0.1,1.2,0.2
				c0.5,0.1,1,0.1,1.5,0.2c0.3,0.1,0.7,0.1,1,0.2c0.6,0.1,1.2,0.2,1.7,0.3c0.2,0,0.4,0.1,0.6,0.1c6.5,1.2,12.9,3,19,5.3l12.5-33.3
				C556.9,485.2,548.6,482.9,540.2,481.3z"/>
			<path fill="#FDF5AD" d="M458.3,528.5l-17.3-31c-17.8,9.9-33.4,23.4-45.8,39.6l28.2,21.6C432.9,546.2,444.6,536,458.3,528.5z"/>
			<path fill="#FDF5AD" d="M643.9,558c-0.2-0.4-0.4-0.8-0.6-1.2c-0.5-0.9-0.9-1.7-1.4-2.6c-0.4-0.6-0.7-1.3-1.1-1.9
				c-0.4-0.7-0.8-1.4-1.2-2c-0.8-1.3-1.6-2.7-2.5-4c-0.1-0.1-0.2-0.3-0.3-0.4c-0.5-0.8-1.1-1.7-1.7-2.5c-0.2-0.3-0.4-0.5-0.6-0.8
				c-0.5-0.7-1-1.4-1.5-2.1c-0.3-0.4-0.5-0.7-0.8-1.1c-0.4-0.6-0.9-1.2-1.3-1.8c-0.3-0.4-0.7-0.9-1-1.3c-0.4-0.5-0.8-1-1.2-1.5
				c-0.4-0.5-0.8-1-1.2-1.5c-0.3-0.4-0.7-0.8-1-1.2c-0.5-0.6-0.9-1.1-1.4-1.7c-0.3-0.3-0.6-0.6-0.9-1c-0.6-0.6-1.1-1.3-1.7-1.9
				c-0.2-0.2-0.4-0.4-0.5-0.6c-0.6-0.6-1.1-1.2-1.7-1.8l-25.8,24.4c0.5,0.6,1.1,1.1,1.6,1.7c0,0,0,0,0,0c0.6,0.6,1.1,1.2,1.6,1.8
				c0.1,0.1,0.2,0.2,0.3,0.3c0.5,0.6,1,1.1,1.4,1.7c0.1,0.2,0.3,0.3,0.4,0.5c0.4,0.5,0.9,1.1,1.3,1.6c0.2,0.2,0.3,0.4,0.5,0.6
				c0.4,0.5,0.8,1,1.1,1.5c0.2,0.3,0.4,0.5,0.6,0.8c0.3,0.5,0.7,0.9,1,1.4c0.2,0.3,0.5,0.6,0.7,0.9c0.3,0.4,0.6,0.8,0.9,1.3
				c0.3,0.4,0.5,0.8,0.8,1.2c0.2,0.4,0.5,0.7,0.7,1.1c0.3,0.5,0.6,1,0.9,1.4c0.2,0.3,0.3,0.6,0.5,0.8c0.4,0.6,0.7,1.2,1.1,1.8
				c0.1,0.2,0.2,0.3,0.3,0.5c0.4,0.7,0.9,1.5,1.3,2.2c0,0,0,0.1,0.1,0.1c2.8,5.1,5.2,10.3,7.1,15.8l33.5-12
				C649.9,570.3,647.1,564.1,643.9,558z"/>
			<rect x="495" y="1261.2" fill="#FDF5AD" width="35.6" height="53.7"/>
			<rect x="530.6" y="1374.2" fill="#2B9FBD" width="0" height="25.8"/>
			<rect x="495" y="1374.2" fill="#FDF5AD" width="35.6" height="25.8"/>
		</g>
		<g>
			<path fill="#DD7662" d="M634.4,1043.7H508.5c-19,0-35.6-12.6-40.9-30.8l-29.3-101.7l-14-5.3c-12.3-4.7-20.5-16.4-20.5-29.6v0
				c0-17.5,14.2-31.6,31.6-31.6h120.3c28.3,0,55.6,10.8,76.2,30.1l89.4,83.6l483.4,241.1c54.1,27,74.6,93.7,45.1,146.4l0,0
				c-31,55.3-103.4,71.2-154.6,33.8L634.4,1043.7z"/>
			<g>
				<polygon fill="#006B85" points="801.5,1104.5 773,1152.5 730.4,1121.4 757.2,1076.1 				"/>
				<polygon fill="#007FA5" points="757.2,1076.1 806.7,992.6 853.9,1016.1 801.5,1104.5 				"/>
				<polygon fill="#F0AA33" points="898.6,1166.8 866.7,1220.8 858.3,1214.7 890,1161.3 				"/>
				<polygon fill="#F0AA33" points="948.2,1063.1 957.4,1067.7 898.6,1166.8 890,1161.3 				"/>
				<polygon fill="#006B85" points="890,1161.3 858.3,1214.7 815.7,1183.6 845.7,1132.9 				"/>
				<polygon fill="#007FA5" points="845.7,1132.9 901,1039.6 948.2,1063.1 890,1161.3 				"/>
				<polygon fill="#F0AA33" points="801.5,1104.5 853.9,1016.1 901,1039.6 845.7,1132.9 				"/>
				<polygon fill="#EB902C" points="845.7,1132.9 815.7,1183.6 773,1152.5 801.5,1104.5 				"/>
				<polygon fill="#EB902C" points="757.2,1076.1 730.4,1121.4 687.7,1090.3 713,1047.7 				"/>
				<polygon fill="#F0AA33" points="713,1047.7 759.6,969.1 806.7,992.6 757.2,1076.1 				"/>
				<polygon fill="#006B85" points="713,1047.7 687.7,1090.3 645.1,1059.3 668.7,1019.4 				"/>
				<polygon fill="#007FA5" points="668.7,1019.4 697.9,970.1 714,946.3 759.6,969.1 713,1047.7 				"/>
				<polygon fill="#F0AA33" points="665.8,1017.5 697.9,970.1 668.7,1019.4 				"/>
				<polygon fill="#F0AA33" points="668.7,1019.4 645.1,1059.3 640,1055.6 665.8,1017.5 				"/>
			</g>
			<g>
				<path fill="#FBCB2F" d="M652.7,1059.1L722,956.9c3.9-5.7,2.4-13.5-3.3-17.4l0,0c-5.7-3.9-13.5-2.4-17.4,3.3L632,1045.1
					c-3.9,5.7-2.4,13.5,3.3,17.4l0,0C641.1,1066.3,648.8,1064.8,652.7,1059.1z"/>
			</g>
			<g>
				<path fill="#FBCB2F" d="M880.5,1221.9l84.5-142.5c3.5-5.9,1.6-13.6-4.4-17.1h0c-5.9-3.5-13.6-1.6-17.1,4.4L859,1209.1
					c-3.5,5.9-1.6,13.6,4.4,17.1l0,0C869.4,1229.8,877,1227.8,880.5,1221.9z"/>
			</g>
		</g>
		<g>
			<g>
				<path fill="#006B85" d="M853.5,247.6c31.1,0,57.4,14.7,66.5,34.9c2.2-8.1,3.4-15.2,3.4-20.6c0-27.8-31.3-50.3-69.9-50.3
					s-69.9,22.5-69.9,50.3c0,5.4,1.2,12.6,3.4,20.6C796.1,262.2,822.4,247.6,853.5,247.6z"/>
				<path fill="#00546D" d="M853.5,283.6c24.3,0,45.6,8.9,58.2,22.4c3.5-8.2,6.3-16.3,8.3-23.6c-9-20.2-35.4-34.9-66.5-34.9
					c-31.1,0-57.4,14.7-66.5,34.9c2,7.4,4.8,15.5,8.3,23.6C807.9,292.5,829.2,283.6,853.5,283.6z"/>
				<path fill="#006B85" d="M853.5,283.6c-24.3,0-45.6,8.9-58.2,22.4c3.7,8.6,8.3,17.3,13.4,25.3c12.1-7.3,27.7-11.7,44.8-11.7
					s32.6,4.4,44.8,11.7c5.1-8,9.7-16.7,13.4-25.3C899.1,292.5,877.8,283.6,853.5,283.6z"/>
				<path fill="#00546D" d="M808.7,331.4c12.1,18.7,27.7,33.4,44.8,33.4s32.6-14.6,44.8-33.4c-12.1-7.3-27.7-11.7-44.8-11.7
					S820.9,324.1,808.7,331.4z"/>
			</g>
			<g>
				<path fill="#007FA5" d="M853.5,356.2c-11.3,0-20.5-9.2-20.5-20.5v32c0,11.3,9.2,20.5,20.5,20.5c11.3,0,20.5-9.2,20.5-20.5v-32
					C874,347,864.8,356.2,853.5,356.2z"/>
				<path fill="#F0AA33" d="M853.5,324.2c-11.3,0-20.5-9.2-20.5-20.5v32c0,11.3,9.2,20.5,20.5,20.5c11.3,0,20.5-9.2,20.5-20.5v-32
					C874,315,864.8,324.2,853.5,324.2z"/>
				<path fill="#007FA5" d="M833,303.7c0,11.3,9.2,20.5,20.5,20.5c11.3,0,20.5-9.2,20.5-20.5v-56.6H833V303.7z"/>
			</g>
			<path fill="#006B85" d="M860.3,287.4h-13.6c-5.4,0-10.4-3.8-12.8-9.9l-17.2-42.5h73.6l-17.2,42.5
				C870.7,283.6,865.7,287.4,860.3,287.4z"/>
			<path fill="#00546D" d="M890.3,235.1h-73.6l12.8-30.1c2.6-6.1,8.5-10,15.1-10h17.9c6.6,0,12.5,3.9,15.1,10L890.3,235.1z"/>
			<path fill="#F0AA33" d="M860.3,276.9h-13.6c-5.4,0-10.4-3-12.8-7.9l-17.2-33.9h73.6L873.1,269
				C870.7,273.8,865.7,276.9,860.3,276.9z"/>
			<path fill="#007FA5" d="M873.4,219.1h-39.7c-6.2,0-11.7,3.7-14.1,9.3l-2.8,6.6h73.6l-2.8-6.6
				C885.1,222.7,879.5,219.1,873.4,219.1z"/>
		</g>
	</g>
</g>
</svg>
